<svg xmlns="http://www.w3.org/2000/svg" width="1200" height="1200" viewBox="0 0 1200 1200">
<circle cx="600.0" cy="600.0" r="545" fill="#ffffff" stroke="#0e1217" stroke-width="4"/>
<circle cx="1100.00" cy="600.00" r="4.5" fill="#6a6f76"/><circle cx="1098.10" cy="643.58" r="4.5" fill="#6a6f76"/><circle cx="1092.40" cy="686.82" r="4.5" fill="#6a6f76"/><circle cx="1082.96" cy="729.41" r="4.5" fill="#6a6f76"/><circle cx="1069.85" cy="771.01" r="4.5" fill="#6a6f76"/><circle cx="1053.15" cy="811.31" r="4.5" fill="#6a6f76"/><circle cx="1033.01" cy="850.00" r="4.5" fill="#6a6f76"/><circle cx="1009.58" cy="886.79" r="4.5" fill="#6a6f76"/><circle cx="983.02" cy="921.39" r="4.5" fill="#6a6f76"/><circle cx="953.55" cy="953.55" r="4.5" fill="#6a6f76"/><circle cx="921.39" cy="983.02" r="4.5" fill="#6a6f76"/><circle cx="886.79" cy="1009.58" r="4.5" fill="#6a6f76"/><circle cx="850.00" cy="1033.01" r="4.5" fill="#6a6f76"/><circle cx="811.31" cy="1053.15" r="4.5" fill="#6a6f76"/><circle cx="771.01" cy="1069.85" r="4.5" fill="#6a6f76"/><circle cx="729.41" cy="1082.96" r="4.5" fill="#6a6f76"/><circle cx="686.82" cy="1092.40" r="4.5" fill="#6a6f76"/><circle cx="643.58" cy="1098.10" r="4.5" fill="#6a6f76"/><circle cx="600.00" cy="1100.00" r="4.5" fill="#6a6f76"/><circle cx="556.42" cy="1098.10" r="4.5" fill="#6a6f76"/><circle cx="513.18" cy="1092.40" r="4.5" fill="#6a6f76"/><circle cx="470.59" cy="1082.96" r="4.5" fill="#6a6f76"/><circle cx="428.99" cy="1069.85" r="4.5" fill="#6a6f76"/><circle cx="388.69" cy="1053.15" r="4.5" fill="#6a6f76"/><circle cx="350.00" cy="1033.01" r="4.5" fill="#6a6f76"/><circle cx="313.21" cy="1009.58" r="4.5" fill="#6a6f76"/><circle cx="278.61" cy="983.02" r="4.5" fill="#6a6f76"/><circle cx="246.45" cy="953.55" r="4.5" fill="#6a6f76"/><circle cx="216.98" cy="921.39" r="4.5" fill="#6a6f76"/><circle cx="190.42" cy="886.79" r="4.5" fill="#6a6f76"/><circle cx="166.99" cy="850.00" r="4.5" fill="#6a6f76"/><circle cx="146.85" cy="811.31" r="4.5" fill="#6a6f76"/><circle cx="130.15" cy="771.01" r="4.5" fill="#6a6f76"/><circle cx="117.04" cy="729.41" r="4.5" fill="#6a6f76"/><circle cx="107.60" cy="686.82" r="4.5" fill="#6a6f76"/><circle cx="101.90" cy="643.58" r="4.5" fill="#6a6f76"/><circle cx="100.00" cy="600.00" r="4.5" fill="#6a6f76"/><circle cx="101.90" cy="556.42" r="4.5" fill="#6a6f76"/><circle cx="107.60" cy="513.18" r="4.5" fill="#6a6f76"/><circle cx="117.04" cy="470.59" r="4.5" fill="#6a6f76"/><circle cx="130.15" cy="428.99" r="4.5" fill="#6a6f76"/><circle cx="146.85" cy="388.69" r="4.5" fill="#6a6f76"/><circle cx="166.99" cy="350.00" r="4.5" fill="#6a6f76"/><circle cx="190.42" cy="313.21" r="4.5" fill="#6a6f76"/><circle cx="216.98" cy="278.61" r="4.5" fill="#6a6f76"/><circle cx="246.45" cy="246.45" r="4.5" fill="#6a6f76"/><circle cx="278.61" cy="216.98" r="4.5" fill="#6a6f76"/><circle cx="313.21" cy="190.42" r="4.5" fill="#6a6f76"/><circle cx="350.00" cy="166.99" r="4.5" fill="#6a6f76"/><circle cx="388.69" cy="146.85" r="4.5" fill="#6a6f76"/><circle cx="428.99" cy="130.15" r="4.5" fill="#6a6f76"/><circle cx="470.59" cy="117.04" r="4.5" fill="#6a6f76"/><circle cx="513.18" cy="107.60" r="4.5" fill="#6a6f76"/><circle cx="556.42" cy="101.90" r="4.5" fill="#6a6f76"/><circle cx="600.00" cy="100.00" r="4.5" fill="#6a6f76"/><circle cx="643.58" cy="101.90" r="4.5" fill="#6a6f76"/><circle cx="686.82" cy="107.60" r="4.5" fill="#6a6f76"/><circle cx="729.41" cy="117.04" r="4.5" fill="#6a6f76"/><circle cx="771.01" cy="130.15" r="4.5" fill="#6a6f76"/><circle cx="811.31" cy="146.85" r="4.5" fill="#6a6f76"/><circle cx="850.00" cy="166.99" r="4.5" fill="#6a6f76"/><circle cx="886.79" cy="190.42" r="4.5" fill="#6a6f76"/><circle cx="921.39" cy="216.98" r="4.5" fill="#6a6f76"/><circle cx="953.55" cy="246.45" r="4.5" fill="#6a6f76"/><circle cx="983.02" cy="278.61" r="4.5" fill="#6a6f76"/><circle cx="1009.58" cy="313.21" r="4.5" fill="#6a6f76"/><circle cx="1033.01" cy="350.00" r="4.5" fill="#6a6f76"/><circle cx="1053.15" cy="388.69" r="4.5" fill="#6a6f76"/><circle cx="1069.85" cy="428.99" r="4.5" fill="#6a6f76"/><circle cx="1082.96" cy="470.59" r="4.5" fill="#6a6f76"/><circle cx="1092.40" cy="513.18" r="4.5" fill="#6a6f76"/><circle cx="1098.10" cy="556.42" r="4.5" fill="#6a6f76"/>
<circle cx="600" cy="600" r="432" fill="none" stroke="#6a6f76" stroke-width="2"/>
<circle cx="904.0559159102154" cy="904.0559159102154" r="9" fill="#0e1217"/>
<circle cx="184.65189469570066" cy="711.2921893940841" r="9" fill="#0e1217"/>
<circle cx="711.2921893940837" cy="184.6518946957006" r="9" fill="#0e1217"/>
<circle cx="600" cy="330" r="120" fill="#ffffff" stroke="#0e1217" stroke-width="4"/>
<text x="600" y="330" text-anchor="middle" dominant-baseline="central" font-family="'DM Mono', ui-monospace, Menlo, monospace" font-size="108" fill="#0e1217" letter-spacing="0">J</text>
<text x="600" y="560" text-anchor="middle" dominant-baseline="central" font-family="'Inter', -apple-system, BlinkMacSystemFont, 'SF Pro Display', 'Helvetica Neue', Arial, sans-serif" font-size="128" fill="#0e1217" letter-spacing="0" font-weight="900">1bit</text>
<text x="600" y="690" text-anchor="middle" dominant-baseline="central" font-family="'Inter', -apple-system, BlinkMacSystemFont, 'SF Pro Display', 'Helvetica Neue', Arial, sans-serif" font-size="128" fill="#0e1217" letter-spacing="0" font-weight="900">JARVIS</text>
<line x1="380" y1="790" x2="820" y2="790" stroke="#0e1217" stroke-width="3"/>
<text x="600" y="860" text-anchor="middle" dominant-baseline="central" font-family="'DM Mono', ui-monospace, Menlo, monospace" font-size="36" fill="#0e1217" letter-spacing="2">PRIVATE AI · ON-DEVICE · ZERO CLOUD</text>
<text x="600" y="930" text-anchor="middle" dominant-baseline="central" font-family="'DM Mono', ui-monospace, Menlo, monospace" font-size="26" fill="#6a6f76" letter-spacing="4">94 tok/s · VOICE · VISION · RAG</text>
</svg>